<svg xmlns="http://www.w3.org/2000/svg" xmlns:xlink="http://www.w3.org/1999/xlink" version="1.1" class="marks" width="1405" height="568" viewBox="0 0 1405 568"><rect width="1405" height="568" fill="white"/><g fill="none" stroke-miterlimit="10" transform="translate(170,40)"><g class="mark-group role-frame root" role="graphics-object" aria-roledescription="group mark container"><g transform="translate(0,0)"><path class="background" aria-hidden="true" d="M0,0h0v0h0Z"/><g><g class="mark-group role-row-header row_header" role="graphics-object" aria-roledescription="group mark container"><g transform="translate(0,0)"><path class="background" aria-hidden="true" d="M0,0h0v400h0Z"/><g><g class="mark-group role-axis" role="graphics-symbol" aria-roledescription="axis" aria-label="Y-axis titled 'Number of Employed Persons' for a linear scale with values from 0 to 24,000,000"><g transform="translate(0.5,0.5)"><path class="background" aria-hidden="true" d="M0,0h0v0h0Z" pointer-events="none"/><g><g class="mark-text role-axis-label" pointer-events="none"><text text-anchor="end" transform="translate(-2,403)" font-family="Raleway" font-size="10px" fill="#000" opacity="1">0</text><text text-anchor="end" transform="translate(-2,369.66666666666663)" font-family="Raleway" font-size="10px" fill="#000" opacity="1">2,000,000</text><text text-anchor="end" transform="translate(-2,336.33333333333337)" font-family="Raleway" font-size="10px" fill="#000" opacity="1">4,000,000</text><text text-anchor="end" transform="translate(-2,303)" font-family="Raleway" font-size="10px" fill="#000" opacity="1">6,000,000</text><text text-anchor="end" transform="translate(-2,269.6666666666667)" font-family="Raleway" font-size="10px" fill="#000" opacity="1">8,000,000</text><text text-anchor="end" transform="translate(-2,236.33333333333331)" font-family="Raleway" font-size="10px" fill="#000" opacity="1">10,000,000</text><text text-anchor="end" transform="translate(-2,203)" font-family="Raleway" font-size="10px" fill="#000" opacity="1">12,000,000</text><text text-anchor="end" transform="translate(-2,169.66666666666666)" font-family="Raleway" font-size="10px" fill="#000" opacity="1">14,000,000</text><text text-anchor="end" transform="translate(-2,136.33333333333334)" font-family="Raleway" font-size="10px" fill="#000" opacity="1">16,000,000</text><text text-anchor="end" transform="translate(-2,103)" font-family="Raleway" font-size="10px" fill="#000" opacity="1">18,000,000</text><text text-anchor="end" transform="translate(-2,69.66666666666666)" font-family="Raleway" font-size="10px" fill="#000" opacity="1">20,000,000</text><text text-anchor="end" transform="translate(-2,36.33333333333335)" font-family="Raleway" font-size="10px" fill="#000" opacity="1">22,000,000</text><text text-anchor="end" transform="translate(-2,3)" font-family="Raleway" font-size="10px" fill="#000" opacity="1">24,000,000</text></g><g class="mark-text role-axis-title" pointer-events="none"><text text-anchor="middle" transform="translate(-58.549957275390625,200) rotate(-90) translate(0,-2)" font-family="Raleway" font-size="11px" font-weight="bold" fill="#000" opacity="1">Number of Employed Persons</text></g></g><path class="foreground" aria-hidden="true" d="" pointer-events="none" display="none"/></g></g></g><path class="foreground" aria-hidden="true" d="" display="none"/></g></g><g class="mark-group role-column-header column_header" role="graphics-object" aria-roledescription="group mark container"><g transform="translate(0,0)"><path class="background" aria-hidden="true" d="M0,0h400v0h-400Z"/><g><g class="mark-group role-title"><g transform="translate(200,-20)"><path class="background" aria-hidden="true" d="M0,0h0v0h0Z" pointer-events="none"/><g><g class="mark-text role-title-text" role="graphics-symbol" aria-roledescription="title" aria-label="Title text 'Men'" pointer-events="none"><text text-anchor="middle" transform="translate(0,8)" font-family="Raleway" font-size="10px" fill="#000" opacity="1">Men</text></g></g><path class="foreground" aria-hidden="true" d="" pointer-events="none" display="none"/></g></g></g><path class="foreground" aria-hidden="true" d="" display="none"/></g><g transform="translate(420,0)"><path class="background" aria-hidden="true" d="M0,0h400v0h-400Z"/><g><g class="mark-group role-title"><g transform="translate(200,-20)"><path class="background" aria-hidden="true" d="M0,0h0v0h0Z" pointer-events="none"/><g><g class="mark-text role-title-text" role="graphics-symbol" aria-roledescription="title" aria-label="Title text 'Women'" pointer-events="none"><text text-anchor="middle" transform="translate(0,8)" font-family="Raleway" font-size="10px" fill="#000" opacity="1">Women</text></g></g><path class="foreground" aria-hidden="true" d="" pointer-events="none" display="none"/></g></g></g><path class="foreground" aria-hidden="true" d="" display="none"/></g></g><g class="mark-group role-column-footer column_footer" role="graphics-object" aria-roledescription="group mark container"><g transform="translate(0,402)"><path class="background" aria-hidden="true" d="M0,0h400v0h-400Z"/><g><g class="mark-group role-axis" role="graphics-symbol" aria-roledescription="axis" aria-label="X-axis for a discrete scale with 2 values: 2015, 2020"><g transform="translate(0.5,0.5)"><path class="background" aria-hidden="true" d="M0,0h0v0h0Z" pointer-events="none"/><g><g class="mark-text role-axis-label" pointer-events="none"><text text-anchor="start" transform="translate(100,2) rotate(45) translate(0,8)" font-family="Raleway" font-size="10px" fill="#000" opacity="1">2015</text><text text-anchor="start" transform="translate(300,2) rotate(45) translate(0,8)" font-family="Raleway" font-size="10px" fill="#000" opacity="1">2020</text></g></g><path class="foreground" aria-hidden="true" d="" pointer-events="none" display="none"/></g></g></g><path class="foreground" aria-hidden="true" d="" display="none"/></g><g transform="translate(420,402)"><path class="background" aria-hidden="true" d="M0,0h400v0h-400Z"/><g><g class="mark-group role-axis" role="graphics-symbol" aria-roledescription="axis" aria-label="X-axis for a discrete scale with 2 values: 2015, 2020"><g transform="translate(0.5,0.5)"><path class="background" aria-hidden="true" d="M0,0h0v0h0Z" pointer-events="none"/><g><g class="mark-text role-axis-label" pointer-events="none"><text text-anchor="start" transform="translate(100,2) rotate(45) translate(0,8)" font-family="Raleway" font-size="10px" fill="#000" opacity="1">2015</text><text text-anchor="start" transform="translate(300,2) rotate(45) translate(0,8)" font-family="Raleway" font-size="10px" fill="#000" opacity="1">2020</text></g></g><path class="foreground" aria-hidden="true" d="" pointer-events="none" display="none"/></g></g></g><path class="foreground" aria-hidden="true" d="" display="none"/></g></g><g class="mark-group role-scope cell" role="graphics-object" aria-roledescription="group mark container"><g transform="translate(0,0)"><path class="background" aria-hidden="true" d="M0,0h400v400h-400Z"/><g><g class="mark-group role-axis" aria-hidden="true"><g transform="translate(0.5,0.5)"><path class="background" aria-hidden="true" d="M0,0h0v0h0Z" pointer-events="none"/><g><g class="mark-rule role-axis-grid" pointer-events="none"><line transform="translate(0,400)" x2="400" y2="0" stroke="#ddd" stroke-width="1" opacity="1"/><line transform="translate(0,367)" x2="400" y2="0" stroke="#ddd" stroke-width="1" opacity="1"/><line transform="translate(0,333)" x2="400" y2="0" stroke="#ddd" stroke-width="1" opacity="1"/><line transform="translate(0,300)" x2="400" y2="0" stroke="#ddd" stroke-width="1" opacity="1"/><line transform="translate(0,267)" x2="400" y2="0" stroke="#ddd" stroke-width="1" opacity="1"/><line transform="translate(0,233)" x2="400" y2="0" stroke="#ddd" stroke-width="1" opacity="1"/><line transform="translate(0,200)" x2="400" y2="0" stroke="#ddd" stroke-width="1" opacity="1"/><line transform="translate(0,167)" x2="400" y2="0" stroke="#ddd" stroke-width="1" opacity="1"/><line transform="translate(0,133)" x2="400" y2="0" stroke="#ddd" stroke-width="1" opacity="1"/><line transform="translate(0,100)" x2="400" y2="0" stroke="#ddd" stroke-width="1" opacity="1"/><line transform="translate(0,67)" x2="400" y2="0" stroke="#ddd" stroke-width="1" opacity="1"/><line transform="translate(0,33)" x2="400" y2="0" stroke="#ddd" stroke-width="1" opacity="1"/><line transform="translate(0,0)" x2="400" y2="0" stroke="#ddd" stroke-width="1" opacity="1"/></g></g><path class="foreground" aria-hidden="true" d="" pointer-events="none" display="none"/></g></g><g class="mark-group role-scope child_layer_0_pathgroup" role="graphics-object" aria-roledescription="group mark container"><g transform="translate(0,0)"><path class="background" aria-hidden="true" d="M0,0h400v400h-400Z"/><g><g class="mark-line role-mark child_layer_0_marks" role="graphics-object" aria-roledescription="line mark container"><path aria-label="Number of Employed Persons: 16487000; year: 2015; occ: Management, business, and financial operations occupations" role="graphics-symbol" aria-roledescription="line mark" d="M100,125.21666666666667L300,97.9833333333333" stroke="#72b7b2" stroke-width="2" opacity="1"/></g></g><path class="foreground" aria-hidden="true" d="" display="none"/></g><g transform="translate(0,0)"><path class="background" aria-hidden="true" d="M0,0h400v400h-400Z"/><g><g class="mark-line role-mark child_layer_0_marks" role="graphics-object" aria-roledescription="line mark container"><path aria-label="Number of Employed Persons: 17268000; year: 2015; occ: Professional and related occupations" role="graphics-symbol" aria-roledescription="line mark" d="M100,112.19999999999999L300,90.98333333333332" stroke="#b279a2" stroke-width="2" opacity="1"/></g></g><path class="foreground" aria-hidden="true" d="" display="none"/></g><g transform="translate(0,0)"><path class="background" aria-hidden="true" d="M0,0h400v400h-400Z"/><g><g class="mark-line role-mark child_layer_0_marks" role="graphics-object" aria-roledescription="line mark container"><path aria-label="Number of Employed Persons: 2529000; year: 2015; occ: Protective service occupations" role="graphics-symbol" aria-roledescription="line mark" d="M100,357.85L300,360" stroke="#ff9da6" stroke-width="2" opacity="1"/></g></g><path class="foreground" aria-hidden="true" d="" display="none"/></g><g transform="translate(0,0)"><path class="background" aria-hidden="true" d="M0,0h400v400h-400Z"/><g><g class="mark-line role-mark child_layer_0_marks" role="graphics-object" aria-roledescription="line mark container"><path aria-label="Number of Employed Persons: 9718000; year: 2015; occ: Service occupations, except protective" role="graphics-symbol" aria-roledescription="line mark" d="M100,238.03333333333336L300,260.65" stroke="#bab0ac" stroke-width="2" opacity="1"/></g></g><path class="foreground" aria-hidden="true" d="" display="none"/></g><g transform="translate(0,0)"><path class="background" aria-hidden="true" d="M0,0h400v400h-400Z"/><g><g class="mark-line role-mark child_layer_0_marks" role="graphics-object" aria-roledescription="line mark container"><path aria-label="Number of Employed Persons: 13838000; year: 2015; occ: Sales and related occupations" role="graphics-symbol" aria-roledescription="line mark" d="M100,169.36666666666667L300,193.08333333333331" stroke="#9d755d" stroke-width="2" opacity="1"/></g></g><path class="foreground" aria-hidden="true" d="" display="none"/></g><g transform="translate(0,0)"><path class="background" aria-hidden="true" d="M0,0h400v400h-400Z"/><g><g class="mark-line role-mark child_layer_0_marks" role="graphics-object" aria-roledescription="line mark container"><path aria-label="Number of Employed Persons: 7035000; year: 2015; occ: Office and administrative support occupations" role="graphics-symbol" aria-roledescription="line mark" d="M100,282.74999999999994L300,308.65" stroke="#54a24b" stroke-width="2" opacity="1"/></g></g><path class="foreground" aria-hidden="true" d="" display="none"/></g><g transform="translate(0,0)"><path class="background" aria-hidden="true" d="M0,0h400v400h-400Z"/><g><g class="mark-line role-mark child_layer_0_marks" role="graphics-object" aria-roledescription="line mark container"><path aria-label="Number of Employed Persons: 874000; year: 2015; occ: Farming, fishing, and forestry occupations" role="graphics-symbol" aria-roledescription="line mark" d="M100,385.43333333333334L300,386.0833333333333" stroke="#f58518" stroke-width="2" opacity="1"/></g></g><path class="foreground" aria-hidden="true" d="" display="none"/></g><g transform="translate(0,0)"><path class="background" aria-hidden="true" d="M0,0h400v400h-400Z"/><g><g class="mark-line role-mark child_layer_0_marks" role="graphics-object" aria-roledescription="line mark container"><path aria-label="Number of Employed Persons: 7853000; year: 2015; occ: Construction and extraction occupations" role="graphics-symbol" aria-roledescription="line mark" d="M100,269.1166666666667L300,269.43333333333334" stroke="#4c78a8" stroke-width="2" opacity="1"/></g></g><path class="foreground" aria-hidden="true" d="" display="none"/></g><g transform="translate(0,0)"><path class="background" aria-hidden="true" d="M0,0h400v400h-400Z"/><g><g class="mark-line role-mark child_layer_0_marks" role="graphics-object" aria-roledescription="line mark container"><path aria-label="Number of Employed Persons: 7347000; year: 2015; occ: Installation, maintenance, and repair occupations" role="graphics-symbol" aria-roledescription="line mark" d="M100,277.55L300,289.6166666666667" stroke="#e45756" stroke-width="2" opacity="1"/></g></g><path class="foreground" aria-hidden="true" d="" display="none"/></g><g transform="translate(0,0)"><path class="background" aria-hidden="true" d="M0,0h400v400h-400Z"/><g><g class="mark-line role-mark child_layer_0_marks" role="graphics-object" aria-roledescription="line mark container"><path aria-label="Number of Employed Persons: 11089000; year: 2015; occ: Production occupations" role="graphics-symbol" aria-roledescription="line mark" d="M100,215.18333333333334L300,234.34999999999997" stroke="#eeca3b" stroke-width="2" opacity="1"/></g></g><path class="foreground" aria-hidden="true" d="" display="none"/></g><g transform="translate(0,0)"><path class="background" aria-hidden="true" d="M0,0h400v400h-400Z"/><g><g class="mark-line role-mark child_layer_0_marks" role="graphics-object" aria-roledescription="line mark container"><path aria-label="Number of Employed Persons: 10693000; year: 2015; occ: Transportation and material moving occupations" role="graphics-symbol" aria-roledescription="line mark" d="M100,221.7833333333333L300,198.33333333333334" stroke="#4c78a8" stroke-width="2" opacity="1"/></g></g><path class="foreground" aria-hidden="true" d="" display="none"/></g></g><g class="mark-symbol role-mark child_layer_1_marks" role="graphics-object" aria-roledescription="symbol mark container"><path aria-label="Sum of employ_n: 18121000; year: 2020; Occupation: Management, business, and financial operations occupations" role="graphics-symbol" aria-roledescription="point" transform="translate(300,97.9833333333333)" d="M5,0A5,5,0,1,1,-5,0A5,5,0,1,1,5,0" fill="#72b7b2" stroke-width="2" opacity="1"/><path aria-label="Sum of employ_n: 18541000; year: 2020; Occupation: Professional and related occupations" role="graphics-symbol" aria-roledescription="point" transform="translate(300,90.98333333333332)" d="M5,0A5,5,0,1,1,-5,0A5,5,0,1,1,5,0" fill="#b279a2" stroke-width="2" opacity="1"/><path aria-label="Sum of employ_n: 2400000; year: 2020; Occupation: Protective service occupations" role="graphics-symbol" aria-roledescription="point" transform="translate(300,360)" d="M5,0A5,5,0,1,1,-5,0A5,5,0,1,1,5,0" fill="#ff9da6" stroke-width="2" opacity="1"/><path aria-label="Sum of employ_n: 8361000; year: 2020; Occupation: Service occupations, except protective" role="graphics-symbol" aria-roledescription="point" transform="translate(300,260.65)" d="M5,0A5,5,0,1,1,-5,0A5,5,0,1,1,5,0" fill="#bab0ac" stroke-width="2" opacity="1"/><path aria-label="Sum of employ_n: 12415000; year: 2020; Occupation: Sales and related occupations" role="graphics-symbol" aria-roledescription="point" transform="translate(300,193.08333333333331)" d="M5,0A5,5,0,1,1,-5,0A5,5,0,1,1,5,0" fill="#9d755d" stroke-width="2" opacity="1"/><path aria-label="Sum of employ_n: 5481000; year: 2020; Occupation: Office and administrative support occupations" role="graphics-symbol" aria-roledescription="point" transform="translate(300,308.65)" d="M5,0A5,5,0,1,1,-5,0A5,5,0,1,1,5,0" fill="#54a24b" stroke-width="2" opacity="1"/><path aria-label="Sum of employ_n: 835000; year: 2020; Occupation: Farming, fishing, and forestry occupations" role="graphics-symbol" aria-roledescription="point" transform="translate(300,386.0833333333333)" d="M5,0A5,5,0,1,1,-5,0A5,5,0,1,1,5,0" fill="#f58518" stroke-width="2" opacity="1"/><path aria-label="Sum of employ_n: 7834000; year: 2020; Occupation: Construction and extraction occupations" role="graphics-symbol" aria-roledescription="point" transform="translate(300,269.43333333333334)" d="M5,0A5,5,0,1,1,-5,0A5,5,0,1,1,5,0" fill="#4c78a8" stroke-width="2" opacity="1"/><path aria-label="Sum of employ_n: 6623000; year: 2020; Occupation: Installation, maintenance, and repair occupations" role="graphics-symbol" aria-roledescription="point" transform="translate(300,289.6166666666667)" d="M5,0A5,5,0,1,1,-5,0A5,5,0,1,1,5,0" fill="#e45756" stroke-width="2" opacity="1"/><path aria-label="Sum of employ_n: 9939000; year: 2020; Occupation: Production occupations" role="graphics-symbol" aria-roledescription="point" transform="translate(300,234.34999999999997)" d="M5,0A5,5,0,1,1,-5,0A5,5,0,1,1,5,0" fill="#eeca3b" stroke-width="2" opacity="1"/><path aria-label="Sum of employ_n: 12100000; year: 2020; Occupation: Transportation and material moving occupations" role="graphics-symbol" aria-roledescription="point" transform="translate(300,198.33333333333334)" d="M5,0A5,5,0,1,1,-5,0A5,5,0,1,1,5,0" fill="#4c78a8" stroke-width="2" opacity="1"/><path aria-label="Sum of employ_n: 16487000; year: 2015; Occupation: Management, business, and financial operations occupations" role="graphics-symbol" aria-roledescription="point" transform="translate(100,125.21666666666667)" d="M5,0A5,5,0,1,1,-5,0A5,5,0,1,1,5,0" fill="#72b7b2" stroke-width="2" opacity="1"/><path aria-label="Sum of employ_n: 17268000; year: 2015; Occupation: Professional and related occupations" role="graphics-symbol" aria-roledescription="point" transform="translate(100,112.19999999999999)" d="M5,0A5,5,0,1,1,-5,0A5,5,0,1,1,5,0" fill="#b279a2" stroke-width="2" opacity="1"/><path aria-label="Sum of employ_n: 2529000; year: 2015; Occupation: Protective service occupations" role="graphics-symbol" aria-roledescription="point" transform="translate(100,357.85)" d="M5,0A5,5,0,1,1,-5,0A5,5,0,1,1,5,0" fill="#ff9da6" stroke-width="2" opacity="1"/><path aria-label="Sum of employ_n: 9718000; year: 2015; Occupation: Service occupations, except protective" role="graphics-symbol" aria-roledescription="point" transform="translate(100,238.03333333333336)" d="M5,0A5,5,0,1,1,-5,0A5,5,0,1,1,5,0" fill="#bab0ac" stroke-width="2" opacity="1"/><path aria-label="Sum of employ_n: 13838000; year: 2015; Occupation: Sales and related occupations" role="graphics-symbol" aria-roledescription="point" transform="translate(100,169.36666666666667)" d="M5,0A5,5,0,1,1,-5,0A5,5,0,1,1,5,0" fill="#9d755d" stroke-width="2" opacity="1"/><path aria-label="Sum of employ_n: 7035000; year: 2015; Occupation: Office and administrative support occupations" role="graphics-symbol" aria-roledescription="point" transform="translate(100,282.74999999999994)" d="M5,0A5,5,0,1,1,-5,0A5,5,0,1,1,5,0" fill="#54a24b" stroke-width="2" opacity="1"/><path aria-label="Sum of employ_n: 874000; year: 2015; Occupation: Farming, fishing, and forestry occupations" role="graphics-symbol" aria-roledescription="point" transform="translate(100,385.43333333333334)" d="M5,0A5,5,0,1,1,-5,0A5,5,0,1,1,5,0" fill="#f58518" stroke-width="2" opacity="1"/><path aria-label="Sum of employ_n: 7853000; year: 2015; Occupation: Construction and extraction occupations" role="graphics-symbol" aria-roledescription="point" transform="translate(100,269.1166666666667)" d="M5,0A5,5,0,1,1,-5,0A5,5,0,1,1,5,0" fill="#4c78a8" stroke-width="2" opacity="1"/><path aria-label="Sum of employ_n: 7347000; year: 2015; Occupation: Installation, maintenance, and repair occupations" role="graphics-symbol" aria-roledescription="point" transform="translate(100,277.55)" d="M5,0A5,5,0,1,1,-5,0A5,5,0,1,1,5,0" fill="#e45756" stroke-width="2" opacity="1"/><path aria-label="Sum of employ_n: 11089000; year: 2015; Occupation: Production occupations" role="graphics-symbol" aria-roledescription="point" transform="translate(100,215.18333333333334)" d="M5,0A5,5,0,1,1,-5,0A5,5,0,1,1,5,0" fill="#eeca3b" stroke-width="2" opacity="1"/><path aria-label="Sum of employ_n: 10693000; year: 2015; Occupation: Transportation and material moving occupations" role="graphics-symbol" aria-roledescription="point" transform="translate(100,221.7833333333333)" d="M5,0A5,5,0,1,1,-5,0A5,5,0,1,1,5,0" fill="#4c78a8" stroke-width="2" opacity="1"/></g></g><path class="foreground" aria-hidden="true" d="" display="none"/></g><g transform="translate(420,0)"><path class="background" aria-hidden="true" d="M0,0h400v400h-400Z"/><g><g class="mark-group role-axis" aria-hidden="true"><g transform="translate(0.5,0.5)"><path class="background" aria-hidden="true" d="M0,0h0v0h0Z" pointer-events="none"/><g><g class="mark-rule role-axis-grid" pointer-events="none"><line transform="translate(0,400)" x2="400" y2="0" stroke="#ddd" stroke-width="1" opacity="1"/><line transform="translate(0,367)" x2="400" y2="0" stroke="#ddd" stroke-width="1" opacity="1"/><line transform="translate(0,333)" x2="400" y2="0" stroke="#ddd" stroke-width="1" opacity="1"/><line transform="translate(0,300)" x2="400" y2="0" stroke="#ddd" stroke-width="1" opacity="1"/><line transform="translate(0,267)" x2="400" y2="0" stroke="#ddd" stroke-width="1" opacity="1"/><line transform="translate(0,233)" x2="400" y2="0" stroke="#ddd" stroke-width="1" opacity="1"/><line transform="translate(0,200)" x2="400" y2="0" stroke="#ddd" stroke-width="1" opacity="1"/><line transform="translate(0,167)" x2="400" y2="0" stroke="#ddd" stroke-width="1" opacity="1"/><line transform="translate(0,133)" x2="400" y2="0" stroke="#ddd" stroke-width="1" opacity="1"/><line transform="translate(0,100)" x2="400" y2="0" stroke="#ddd" stroke-width="1" opacity="1"/><line transform="translate(0,67)" x2="400" y2="0" stroke="#ddd" stroke-width="1" opacity="1"/><line transform="translate(0,33)" x2="400" y2="0" stroke="#ddd" stroke-width="1" opacity="1"/><line transform="translate(0,0)" x2="400" y2="0" stroke="#ddd" stroke-width="1" opacity="1"/></g></g><path class="foreground" aria-hidden="true" d="" pointer-events="none" display="none"/></g></g><g class="mark-group role-scope child_layer_0_pathgroup" role="graphics-object" aria-roledescription="group mark container"><g transform="translate(0,0)"><path class="background" aria-hidden="true" d="M0,0h400v400h-400Z"/><g><g class="mark-line role-mark child_layer_0_marks" role="graphics-object" aria-roledescription="line mark container"><path aria-label="Number of Employed Persons: 12334000; year: 2015; occ: Management, business, and financial operations occupations" role="graphics-symbol" aria-roledescription="line mark" d="M100,194.43333333333334L300,162.68333333333334" stroke="#72b7b2" stroke-width="2" opacity="1"/></g></g><path class="foreground" aria-hidden="true" d="" display="none"/></g><g transform="translate(0,0)"><path class="background" aria-hidden="true" d="M0,0h400v400h-400Z"/><g><g class="mark-line role-mark child_layer_0_marks" role="graphics-object" aria-roledescription="line mark container"><path aria-label="Number of Employed Persons: 20870000; year: 2015; occ: Professional and related occupations" role="graphics-symbol" aria-roledescription="line mark" d="M100,52.16666666666665L300,26.383333333333336" stroke="#b279a2" stroke-width="2" opacity="1"/></g></g><path class="foreground" aria-hidden="true" d="" display="none"/></g><g transform="translate(0,0)"><path class="background" aria-hidden="true" d="M0,0h400v400h-400Z"/><g><g class="mark-line role-mark child_layer_0_marks" role="graphics-object" aria-roledescription="line mark container"><path aria-label="Number of Employed Persons: 700000; year: 2015; occ: Protective service occupations" role="graphics-symbol" aria-roledescription="line mark" d="M100,388.3333333333333L300,387.56666666666666" stroke="#ff9da6" stroke-width="2" opacity="1"/></g></g><path class="foreground" aria-hidden="true" d="" display="none"/></g><g transform="translate(0,0)"><path class="background" aria-hidden="true" d="M0,0h400v400h-400Z"/><g><g class="mark-line role-mark child_layer_0_marks" role="graphics-object" aria-roledescription="line mark container"><path aria-label="Number of Employed Persons: 16650000; year: 2015; occ: Service occupations, except protective" role="graphics-symbol" aria-roledescription="line mark" d="M100,122.50000000000001L300,155.61666666666665" stroke="#bab0ac" stroke-width="2" opacity="1"/></g></g><path class="foreground" aria-hidden="true" d="" display="none"/></g><g transform="translate(0,0)"><path class="background" aria-hidden="true" d="M0,0h400v400h-400Z"/><g><g class="mark-line role-mark child_layer_0_marks" role="graphics-object" aria-roledescription="line mark container"><path aria-label="Number of Employed Persons: 13067000; year: 2015; occ: Sales and related occupations" role="graphics-symbol" aria-roledescription="line mark" d="M100,182.21666666666664L300,208.28333333333333" stroke="#9d755d" stroke-width="2" opacity="1"/></g></g><path class="foreground" aria-hidden="true" d="" display="none"/></g><g transform="translate(0,0)"><path class="background" aria-hidden="true" d="M0,0h400v400h-400Z"/><g><g class="mark-line role-mark child_layer_0_marks" role="graphics-object" aria-roledescription="line mark container"><path aria-label="Number of Employed Persons: 16094000; year: 2015; occ: Office and administrative support occupations" role="graphics-symbol" aria-roledescription="line mark" d="M100,131.76666666666668L300,171.1" stroke="#54a24b" stroke-width="2" opacity="1"/></g></g><path class="foreground" aria-hidden="true" d="" display="none"/></g><g transform="translate(0,0)"><path class="background" aria-hidden="true" d="M0,0h400v400h-400Z"/><g><g class="mark-line role-mark child_layer_0_marks" role="graphics-object" aria-roledescription="line mark container"><path aria-label="Number of Employed Persons: 319000; year: 2015; occ: Farming, fishing, and forestry occupations" role="graphics-symbol" aria-roledescription="line mark" d="M100,394.68333333333334L300,395.4166666666667" stroke="#f58518" stroke-width="2" opacity="1"/></g></g><path class="foreground" aria-hidden="true" d="" display="none"/></g><g transform="translate(0,0)"><path class="background" aria-hidden="true" d="M0,0h400v400h-400Z"/><g><g class="mark-line role-mark child_layer_0_marks" role="graphics-object" aria-roledescription="line mark container"><path aria-label="Number of Employed Persons: 222000; year: 2015; occ: Construction and extraction occupations" role="graphics-symbol" aria-roledescription="line mark" d="M100,396.3L300,394.5333333333333" stroke="#4c78a8" stroke-width="2" opacity="1"/></g></g><path class="foreground" aria-hidden="true" d="" display="none"/></g><g transform="translate(0,0)"><path class="background" aria-hidden="true" d="M0,0h400v400h-400Z"/><g><g class="mark-line role-mark child_layer_0_marks" role="graphics-object" aria-roledescription="line mark container"><path aria-label="Number of Employed Persons: 261000; year: 2015; occ: Installation, maintenance, and repair occupations" role="graphics-symbol" aria-roledescription="line mark" d="M100,395.65000000000003L300,395.3666666666667" stroke="#e45756" stroke-width="2" opacity="1"/></g></g><path class="foreground" aria-hidden="true" d="" display="none"/></g><g transform="translate(0,0)"><path class="background" aria-hidden="true" d="M0,0h400v400h-400Z"/><g><g class="mark-line role-mark child_layer_0_marks" role="graphics-object" aria-roledescription="line mark container"><path aria-label="Number of Employed Persons: 4555000; year: 2015; occ: Production occupations" role="graphics-symbol" aria-roledescription="line mark" d="M100,324.0833333333333L300,334.18333333333334" stroke="#eeca3b" stroke-width="2" opacity="1"/></g></g><path class="foreground" aria-hidden="true" d="" display="none"/></g><g transform="translate(0,0)"><path class="background" aria-hidden="true" d="M0,0h400v400h-400Z"/><g><g class="mark-line role-mark child_layer_0_marks" role="graphics-object" aria-roledescription="line mark container"><path aria-label="Number of Employed Persons: 1946000; year: 2015; occ: Transportation and material moving occupations" role="graphics-symbol" aria-roledescription="line mark" d="M100,367.56666666666666L300,344.98333333333335" stroke="#4c78a8" stroke-width="2" opacity="1"/></g></g><path class="foreground" aria-hidden="true" d="" display="none"/></g></g><g class="mark-symbol role-mark child_layer_1_marks" role="graphics-object" aria-roledescription="symbol mark container"><path aria-label="Sum of employ_n: 14239000; year: 2020; Occupation: Management, business, and financial operations occupations" role="graphics-symbol" aria-roledescription="point" transform="translate(300,162.68333333333334)" d="M5,0A5,5,0,1,1,-5,0A5,5,0,1,1,5,0" fill="#72b7b2" stroke-width="2" opacity="1"/><path aria-label="Sum of employ_n: 22417000; year: 2020; Occupation: Professional and related occupations" role="graphics-symbol" aria-roledescription="point" transform="translate(300,26.383333333333336)" d="M5,0A5,5,0,1,1,-5,0A5,5,0,1,1,5,0" fill="#b279a2" stroke-width="2" opacity="1"/><path aria-label="Sum of employ_n: 746000; year: 2020; Occupation: Protective service occupations" role="graphics-symbol" aria-roledescription="point" transform="translate(300,387.56666666666666)" d="M5,0A5,5,0,1,1,-5,0A5,5,0,1,1,5,0" fill="#ff9da6" stroke-width="2" opacity="1"/><path aria-label="Sum of employ_n: 14663000; year: 2020; Occupation: Service occupations, except protective" role="graphics-symbol" aria-roledescription="point" transform="translate(300,155.61666666666665)" d="M5,0A5,5,0,1,1,-5,0A5,5,0,1,1,5,0" fill="#bab0ac" stroke-width="2" opacity="1"/><path aria-label="Sum of employ_n: 11503000; year: 2020; Occupation: Sales and related occupations" role="graphics-symbol" aria-roledescription="point" transform="translate(300,208.28333333333333)" d="M5,0A5,5,0,1,1,-5,0A5,5,0,1,1,5,0" fill="#9d755d" stroke-width="2" opacity="1"/><path aria-label="Sum of employ_n: 13734000; year: 2020; Occupation: Office and administrative support occupations" role="graphics-symbol" aria-roledescription="point" transform="translate(300,171.1)" d="M5,0A5,5,0,1,1,-5,0A5,5,0,1,1,5,0" fill="#54a24b" stroke-width="2" opacity="1"/><path aria-label="Sum of employ_n: 275000; year: 2020; Occupation: Farming, fishing, and forestry occupations" role="graphics-symbol" aria-roledescription="point" transform="translate(300,395.4166666666667)" d="M5,0A5,5,0,1,1,-5,0A5,5,0,1,1,5,0" fill="#f58518" stroke-width="2" opacity="1"/><path aria-label="Sum of employ_n: 328000; year: 2020; Occupation: Construction and extraction occupations" role="graphics-symbol" aria-roledescription="point" transform="translate(300,394.5333333333333)" d="M5,0A5,5,0,1,1,-5,0A5,5,0,1,1,5,0" fill="#4c78a8" stroke-width="2" opacity="1"/><path aria-label="Sum of employ_n: 278000; year: 2020; Occupation: Installation, maintenance, and repair occupations" role="graphics-symbol" aria-roledescription="point" transform="translate(300,395.3666666666667)" d="M5,0A5,5,0,1,1,-5,0A5,5,0,1,1,5,0" fill="#e45756" stroke-width="2" opacity="1"/><path aria-label="Sum of employ_n: 3949000; year: 2020; Occupation: Production occupations" role="graphics-symbol" aria-roledescription="point" transform="translate(300,334.18333333333334)" d="M5,0A5,5,0,1,1,-5,0A5,5,0,1,1,5,0" fill="#eeca3b" stroke-width="2" opacity="1"/><path aria-label="Sum of employ_n: 3301000; year: 2020; Occupation: Transportation and material moving occupations" role="graphics-symbol" aria-roledescription="point" transform="translate(300,344.98333333333335)" d="M5,0A5,5,0,1,1,-5,0A5,5,0,1,1,5,0" fill="#4c78a8" stroke-width="2" opacity="1"/><path aria-label="Sum of employ_n: 12334000; year: 2015; Occupation: Management, business, and financial operations occupations" role="graphics-symbol" aria-roledescription="point" transform="translate(100,194.43333333333334)" d="M5,0A5,5,0,1,1,-5,0A5,5,0,1,1,5,0" fill="#72b7b2" stroke-width="2" opacity="1"/><path aria-label="Sum of employ_n: 20870000; year: 2015; Occupation: Professional and related occupations" role="graphics-symbol" aria-roledescription="point" transform="translate(100,52.16666666666665)" d="M5,0A5,5,0,1,1,-5,0A5,5,0,1,1,5,0" fill="#b279a2" stroke-width="2" opacity="1"/><path aria-label="Sum of employ_n: 700000; year: 2015; Occupation: Protective service occupations" role="graphics-symbol" aria-roledescription="point" transform="translate(100,388.3333333333333)" d="M5,0A5,5,0,1,1,-5,0A5,5,0,1,1,5,0" fill="#ff9da6" stroke-width="2" opacity="1"/><path aria-label="Sum of employ_n: 16650000; year: 2015; Occupation: Service occupations, except protective" role="graphics-symbol" aria-roledescription="point" transform="translate(100,122.50000000000001)" d="M5,0A5,5,0,1,1,-5,0A5,5,0,1,1,5,0" fill="#bab0ac" stroke-width="2" opacity="1"/><path aria-label="Sum of employ_n: 13067000; year: 2015; Occupation: Sales and related occupations" role="graphics-symbol" aria-roledescription="point" transform="translate(100,182.21666666666664)" d="M5,0A5,5,0,1,1,-5,0A5,5,0,1,1,5,0" fill="#9d755d" stroke-width="2" opacity="1"/><path aria-label="Sum of employ_n: 16094000; year: 2015; Occupation: Office and administrative support occupations" role="graphics-symbol" aria-roledescription="point" transform="translate(100,131.76666666666668)" d="M5,0A5,5,0,1,1,-5,0A5,5,0,1,1,5,0" fill="#54a24b" stroke-width="2" opacity="1"/><path aria-label="Sum of employ_n: 319000; year: 2015; Occupation: Farming, fishing, and forestry occupations" role="graphics-symbol" aria-roledescription="point" transform="translate(100,394.68333333333334)" d="M5,0A5,5,0,1,1,-5,0A5,5,0,1,1,5,0" fill="#f58518" stroke-width="2" opacity="1"/><path aria-label="Sum of employ_n: 222000; year: 2015; Occupation: Construction and extraction occupations" role="graphics-symbol" aria-roledescription="point" transform="translate(100,396.3)" d="M5,0A5,5,0,1,1,-5,0A5,5,0,1,1,5,0" fill="#4c78a8" stroke-width="2" opacity="1"/><path aria-label="Sum of employ_n: 261000; year: 2015; Occupation: Installation, maintenance, and repair occupations" role="graphics-symbol" aria-roledescription="point" transform="translate(100,395.65000000000003)" d="M5,0A5,5,0,1,1,-5,0A5,5,0,1,1,5,0" fill="#e45756" stroke-width="2" opacity="1"/><path aria-label="Sum of employ_n: 4555000; year: 2015; Occupation: Production occupations" role="graphics-symbol" aria-roledescription="point" transform="translate(100,324.0833333333333)" d="M5,0A5,5,0,1,1,-5,0A5,5,0,1,1,5,0" fill="#eeca3b" stroke-width="2" opacity="1"/><path aria-label="Sum of employ_n: 1946000; year: 2015; Occupation: Transportation and material moving occupations" role="graphics-symbol" aria-roledescription="point" transform="translate(100,367.56666666666666)" d="M5,0A5,5,0,1,1,-5,0A5,5,0,1,1,5,0" fill="#4c78a8" stroke-width="2" opacity="1"/></g></g><path class="foreground" aria-hidden="true" d="" display="none"/></g></g><g class="mark-group role-legend" role="graphics-symbol" aria-roledescription="legend" aria-label="Symbol legend titled 'Occupation' for fill color and stroke color with 11 values: Construction and extraction occupations, Farming, fishing, and forestry occupations, Installation, maintenance, and repair occupations, Management, business, and financial operations occupations, Office and administrative support occupations, ending with Transportation and material moving occupations"><g transform="translate(838,0)"><path class="background" aria-hidden="true" d="M0,0h297v189h-297Z" pointer-events="none"/><g><g class="mark-group role-legend-entry"><g transform="translate(0,16)"><path class="background" aria-hidden="true" d="M0,0h0v0h0Z" pointer-events="none"/><g><g class="mark-group role-scope occ_legend_entries" role="graphics-object" aria-roledescription="group mark container"><g transform="translate(0,0)"><path class="background" aria-hidden="true" d="M0,0h296.4794921875v12.5h-296.4794921875Z" opacity="1"/><g><g class="mark-symbol role-legend-symbol occ_legend_symbols"><path transform="translate(6,6)" d="M5,0A5,5,0,1,1,-5,0A5,5,0,1,1,5,0" fill="#4c78a8" stroke="#4c78a8" stroke-width="1.5" opacity="1"/></g><g class="mark-text role-legend-label occ_legend_labels"><text text-anchor="start" transform="translate(16,9)" font-family="Raleway" font-size="10px" fill="#000" opacity="1">Construction and extraction occupations</text></g></g><path class="foreground" aria-hidden="true" d="" display="none"/></g><g transform="translate(0,16)"><path class="background" aria-hidden="true" d="M0,0h296.4794921875v12.5h-296.4794921875Z" opacity="1"/><g><g class="mark-symbol role-legend-symbol occ_legend_symbols"><path transform="translate(6,6)" d="M5,0A5,5,0,1,1,-5,0A5,5,0,1,1,5,0" fill="#f58518" stroke="#f58518" stroke-width="1.5" opacity="1"/></g><g class="mark-text role-legend-label occ_legend_labels"><text text-anchor="start" transform="translate(16,9)" font-family="Raleway" font-size="10px" fill="#000" opacity="1">Farming, fishing, and forestry occupations</text></g></g><path class="foreground" aria-hidden="true" d="" display="none"/></g><g transform="translate(0,32)"><path class="background" aria-hidden="true" d="M0,0h296.4794921875v12.5h-296.4794921875Z" opacity="1"/><g><g class="mark-symbol role-legend-symbol occ_legend_symbols"><path transform="translate(6,6)" d="M5,0A5,5,0,1,1,-5,0A5,5,0,1,1,5,0" fill="#e45756" stroke="#e45756" stroke-width="1.5" opacity="1"/></g><g class="mark-text role-legend-label occ_legend_labels"><text text-anchor="start" transform="translate(16,9)" font-family="Raleway" font-size="10px" fill="#000" opacity="1">Installation, maintenance, and repair occupations</text></g></g><path class="foreground" aria-hidden="true" d="" display="none"/></g><g transform="translate(0,48)"><path class="background" aria-hidden="true" d="M0,0h296.4794921875v12.5h-296.4794921875Z" opacity="1"/><g><g class="mark-symbol role-legend-symbol occ_legend_symbols"><path transform="translate(6,6)" d="M5,0A5,5,0,1,1,-5,0A5,5,0,1,1,5,0" fill="#72b7b2" stroke="#72b7b2" stroke-width="1.5" opacity="1"/></g><g class="mark-text role-legend-label occ_legend_labels"><text text-anchor="start" transform="translate(16,9)" font-family="Raleway" font-size="10px" fill="#000" opacity="1">Management, business, and financial operations occupations</text></g></g><path class="foreground" aria-hidden="true" d="" display="none"/></g><g transform="translate(0,64)"><path class="background" aria-hidden="true" d="M0,0h296.4794921875v12.5h-296.4794921875Z" opacity="1"/><g><g class="mark-symbol role-legend-symbol occ_legend_symbols"><path transform="translate(6,6)" d="M5,0A5,5,0,1,1,-5,0A5,5,0,1,1,5,0" fill="#54a24b" stroke="#54a24b" stroke-width="1.5" opacity="1"/></g><g class="mark-text role-legend-label occ_legend_labels"><text text-anchor="start" transform="translate(16,9)" font-family="Raleway" font-size="10px" fill="#000" opacity="1">Office and administrative support occupations</text></g></g><path class="foreground" aria-hidden="true" d="" display="none"/></g><g transform="translate(0,80)"><path class="background" aria-hidden="true" d="M0,0h296.4794921875v12.5h-296.4794921875Z" opacity="1"/><g><g class="mark-symbol role-legend-symbol occ_legend_symbols"><path transform="translate(6,6)" d="M5,0A5,5,0,1,1,-5,0A5,5,0,1,1,5,0" fill="#eeca3b" stroke="#eeca3b" stroke-width="1.5" opacity="1"/></g><g class="mark-text role-legend-label occ_legend_labels"><text text-anchor="start" transform="translate(16,9)" font-family="Raleway" font-size="10px" fill="#000" opacity="1">Production occupations</text></g></g><path class="foreground" aria-hidden="true" d="" display="none"/></g><g transform="translate(0,96)"><path class="background" aria-hidden="true" d="M0,0h296.4794921875v12.5h-296.4794921875Z" opacity="1"/><g><g class="mark-symbol role-legend-symbol occ_legend_symbols"><path transform="translate(6,6)" d="M5,0A5,5,0,1,1,-5,0A5,5,0,1,1,5,0" fill="#b279a2" stroke="#b279a2" stroke-width="1.5" opacity="1"/></g><g class="mark-text role-legend-label occ_legend_labels"><text text-anchor="start" transform="translate(16,9)" font-family="Raleway" font-size="10px" fill="#000" opacity="1">Professional and related occupations</text></g></g><path class="foreground" aria-hidden="true" d="" display="none"/></g><g transform="translate(0,112)"><path class="background" aria-hidden="true" d="M0,0h296.4794921875v12.5h-296.4794921875Z" opacity="1"/><g><g class="mark-symbol role-legend-symbol occ_legend_symbols"><path transform="translate(6,6)" d="M5,0A5,5,0,1,1,-5,0A5,5,0,1,1,5,0" fill="#ff9da6" stroke="#ff9da6" stroke-width="1.5" opacity="1"/></g><g class="mark-text role-legend-label occ_legend_labels"><text text-anchor="start" transform="translate(16,9)" font-family="Raleway" font-size="10px" fill="#000" opacity="1">Protective service occupations</text></g></g><path class="foreground" aria-hidden="true" d="" display="none"/></g><g transform="translate(0,128)"><path class="background" aria-hidden="true" d="M0,0h296.4794921875v12.5h-296.4794921875Z" opacity="1"/><g><g class="mark-symbol role-legend-symbol occ_legend_symbols"><path transform="translate(6,6)" d="M5,0A5,5,0,1,1,-5,0A5,5,0,1,1,5,0" fill="#9d755d" stroke="#9d755d" stroke-width="1.5" opacity="1"/></g><g class="mark-text role-legend-label occ_legend_labels"><text text-anchor="start" transform="translate(16,9)" font-family="Raleway" font-size="10px" fill="#000" opacity="1">Sales and related occupations</text></g></g><path class="foreground" aria-hidden="true" d="" display="none"/></g><g transform="translate(0,144)"><path class="background" aria-hidden="true" d="M0,0h296.4794921875v12.5h-296.4794921875Z" opacity="1"/><g><g class="mark-symbol role-legend-symbol occ_legend_symbols"><path transform="translate(6,6)" d="M5,0A5,5,0,1,1,-5,0A5,5,0,1,1,5,0" fill="#bab0ac" stroke="#bab0ac" stroke-width="1.5" opacity="1"/></g><g class="mark-text role-legend-label occ_legend_labels"><text text-anchor="start" transform="translate(16,9)" font-family="Raleway" font-size="10px" fill="#000" opacity="1">Service occupations, except protective</text></g></g><path class="foreground" aria-hidden="true" d="" display="none"/></g><g transform="translate(0,160)"><path class="background" aria-hidden="true" d="M0,0h296.4794921875v12.5h-296.4794921875Z" opacity="1"/><g><g class="mark-symbol role-legend-symbol occ_legend_symbols"><path transform="translate(6,6)" d="M5,0A5,5,0,1,1,-5,0A5,5,0,1,1,5,0" fill="#4c78a8" stroke="#4c78a8" stroke-width="1.5" opacity="1"/></g><g class="mark-text role-legend-label occ_legend_labels"><text text-anchor="start" transform="translate(16,9)" font-family="Raleway" font-size="10px" fill="#000" opacity="1">Transportation and material moving occupations</text></g></g><path class="foreground" aria-hidden="true" d="" display="none"/></g></g></g><path class="foreground" aria-hidden="true" d="" pointer-events="none" display="none"/></g></g><g class="mark-text role-legend-title" pointer-events="none"><text text-anchor="start" transform="translate(0,9)" font-family="Raleway" font-size="11px" font-weight="bold" fill="#000" opacity="1">Occupation</text></g></g><path class="foreground" aria-hidden="true" d="" pointer-events="none" display="none"/></g></g></g><path class="foreground" aria-hidden="true" d="" display="none"/></g></g></g></svg>